<svg width="58" height="59" viewBox="0 0 58 59" fill="none" xmlns="http://www.w3.org/2000/svg">
<path d="M14.375 14.5938L24.125 24.5312M9.5 16.25V42.75M48.5 42.75V16.25M16 9.625H42M42 49.375H16M55 49.375C55 47.6179 54.3152 45.9328 53.0962 44.6904C51.8772 43.448 50.2239 42.75 48.5 42.75C46.7761 42.75 45.1228 43.448 43.9038 44.6904C42.6848 45.9328 42 47.6179 42 49.375C42 51.1321 42.6848 52.8172 43.9038 54.0596C45.1228 55.302 46.7761 56 48.5 56C50.2239 56 51.8772 55.302 53.0962 54.0596C54.3152 52.8172 55 51.1321 55 49.375ZM16 49.375C16 47.6179 15.3152 45.9328 14.0962 44.6904C12.8772 43.448 11.2239 42.75 9.5 42.75C7.77609 42.75 6.12279 43.448 4.90381 44.6904C3.68482 45.9328 3 47.6179 3 49.375C3 51.1321 3.68482 52.8172 4.90381 54.0596C6.12279 55.302 7.77609 56 9.5 56C11.2239 56 12.8772 55.302 14.0962 54.0596C15.3152 52.8172 16 51.1321 16 49.375ZM16 9.625C16 7.86794 15.3152 6.18285 14.0962 4.94042C12.8772 3.69799 11.2239 3 9.5 3C7.77609 3 6.12279 3.69799 4.90381 4.94042C3.68482 6.18285 3 7.86794 3 9.625C3 11.3821 3.68482 13.0672 4.90381 14.3096C6.12279 15.552 7.77609 16.25 9.5 16.25C11.2239 16.25 12.8772 15.552 14.0962 14.3096C15.3152 13.0672 16 11.3821 16 9.625ZM55 9.625C55 7.86794 54.3152 6.18285 53.0962 4.94042C51.8772 3.69799 50.2239 3 48.5 3C46.7761 3 45.1228 3.69799 43.9038 4.94042C42.6848 6.18285 42 7.86794 42 9.625C42 11.3821 42.6848 13.0672 43.9038 14.3096C45.1228 15.552 46.7761 16.25 48.5 16.25C50.2239 16.25 51.8772 15.552 53.0962 14.3096C54.3152 13.0672 55 11.3821 55 9.625ZM35.5 29.5C35.5 27.7429 34.8152 26.0578 33.5962 24.8154C32.3772 23.573 30.7239 22.875 29 22.875C27.2761 22.875 25.6228 23.573 24.4038 24.8154C23.1848 26.0578 22.5 27.7429 22.5 29.5C22.5 31.2571 23.1848 32.9422 24.4038 34.1846C25.6228 35.427 27.2761 36.125 29 36.125C30.7239 36.125 32.3772 35.427 33.5962 34.1846C34.8152 32.9422 35.5 31.2571 35.5 29.5Z" stroke="#E39E22" stroke-width="5" stroke-linecap="round" stroke-linejoin="round"/>
</svg>
