<svg width="26" height="38" viewBox="0 0 26 38" fill="none" xmlns="http://www.w3.org/2000/svg">
<path d="M12.8333 18.0837C11.6178 18.0837 10.452 17.6008 9.59243 16.7412C8.73289 15.8817 8.25 14.7159 8.25 13.5003C8.25 12.2848 8.73289 11.119 9.59243 10.2594C10.452 9.39988 11.6178 8.91699 12.8333 8.91699C14.0489 8.91699 15.2147 9.39988 16.0742 10.2594C16.9338 11.119 17.4167 12.2848 17.4167 13.5003C17.4167 14.1022 17.2981 14.6982 17.0678 15.2543C16.8374 15.8104 16.4998 16.3156 16.0742 16.7412C15.6486 17.1668 15.1434 17.5044 14.5873 17.7348C14.0312 17.9651 13.4352 18.0837 12.8333 18.0837M12.8333 0.666992C9.42972 0.666992 6.16551 2.01907 3.7588 4.42579C1.35208 6.83251 0 10.0967 0 13.5003C0 23.1253 12.8333 37.3337 12.8333 37.3337C12.8333 37.3337 25.6667 23.1253 25.6667 13.5003C25.6667 10.0967 24.3146 6.83251 21.9079 4.42579C19.5012 2.01907 16.2369 0.666992 12.8333 0.666992V0.666992Z" fill="#2593E9"/>
</svg>
