<svg width="185" height="99" viewBox="0 0 185 99" fill="none" xmlns="http://www.w3.org/2000/svg">
<path fill-rule="evenodd" clip-rule="evenodd" d="M108.1 39.0541H103.504C101.825 39.0541 100.941 39.1433 99.7033 38.3408C97.7588 37.0925 97.2284 34.1501 98.5543 32.0993C99.6149 30.4943 101.118 30.2268 102.797 30.2268L114.376 30.316V47.3465L92.4554 60.0971L70.5347 47.3465V32.6342H68.3249L68.4133 48.7731L92.5438 62.6828L116.674 48.7731L116.763 30.2268H118.265L118.177 49.5756L92.5438 64.5553L66.8223 49.5756V32.5451H62.4912V52.0722L92.4554 69.4594L122.508 52.0722V25.501L105.625 25.4119C101.029 25.4119 96.1677 25.0552 93.7812 30.5835C92.8089 32.7234 92.8089 35.5767 93.6044 37.8058C96.3445 45.5632 105.272 43.7799 112.697 43.869V32.1884L105.714 32.0993C102.001 32.0993 102.797 32.9909 102.974 36.4683H108.1V38.965V39.0541Z" fill="#2593E9"/>
<path fill-rule="evenodd" clip-rule="evenodd" d="M62.4912 17.3872V30.1378L92.4554 30.2269V25.412C90.0688 25.5012 71.4186 25.5904 70.5347 25.3229V21.9346L92.5438 9.36232L114.376 22.0238L114.464 23.0937L116.674 23.1829V20.6863C112.608 18.903 93.5161 6.24155 92.4554 6.8657L68.3249 20.6863V25.5904H66.9107L66.8223 19.7055L92.5438 4.90407L118.265 19.7055V23.1829H122.596V17.4763L92.5438 0L62.4912 17.6547V17.3872Z" fill="#016599"/>
<path fill-rule="evenodd" clip-rule="evenodd" d="M78.49 32.5451H72.3911C72.8331 35.7551 75.9267 36.3792 79.0204 36.3792C80.7882 36.3792 82.6444 36.3792 84.4122 36.3792C85.738 36.3792 87.9478 36.0225 87.8594 37.5384C87.8594 39.1433 85.9148 38.965 84.4122 38.965H72.126V43.6907L78.5784 43.7799C80.965 43.7799 84.3238 44.0474 86.9755 43.6907C90.6878 43.2449 92.6324 41.9074 92.2789 37.7167C91.8369 32.2776 87.5942 32.5451 83.1747 32.5451H78.4017H78.49Z" fill="#016599"/>
<path d="M0 83.4586L2.74009 80.7837H15.7334V83.4586H4.41949V88.0061H15.7334V95.4067L12.9933 98.1709H0V95.4959H11.3139V90.7702H0V83.4586Z" fill="#016599"/>
<path d="M32.881 80.7837L35.5327 83.4586V98.1709H31.1132V90.7702H24.3072V98.1709H19.8877V83.4586L22.6278 80.7837H32.9694H32.881ZM31.1132 88.0952V83.5478H24.3072V88.0952H31.1132Z" fill="#016599"/>
<path d="M39.6875 83.4586L42.4276 80.7837H63.9947L66.6464 83.4586V98.1709H62.2269V83.4586H55.4209V98.1709H51.0014V83.4586H44.107V98.1709H39.6875V83.4586Z" fill="#016599"/>
<path d="M70.7998 83.4586L73.5399 80.7837H75.2193V98.1709H70.7998V83.4586Z" fill="#016599"/>
<path d="M89.8926 98.1709V83.4586L92.5443 80.7837H105.538V83.4586H94.3121V95.4959H101.118V90.7702H97.7593V88.0061H105.538V95.4067L102.886 98.1709H89.8926Z" fill="#016599"/>
<path d="M125.425 83.4585V88.0059L122.773 90.6808H121.27L125.425 95.4066L122.685 98.0815L116.144 90.6808H114.111V98.0815H109.691V80.6943H122.685L125.336 83.3693L125.425 83.4585ZM121.005 88.0059V83.4585H114.199V88.0059H121.005Z" fill="#016599"/>
<path d="M142.573 80.7837L145.225 83.4586V95.4067L142.485 98.1709H132.143L129.491 95.4959V83.4586L132.231 80.7837H142.573ZM140.805 95.4959V83.4586H133.999V95.4959H140.805Z" fill="#016599"/>
<path d="M152.118 98.1709L149.467 95.4959V80.7837H153.886V95.4959H160.692V80.7837H165.112V95.4067L162.46 98.1709H152.118Z" fill="#016599"/>
<path d="M182.349 80.7835L185 83.4585V88.0059L182.349 90.6808H173.775V98.0815H169.355V80.6943H182.349V80.7835ZM180.581 88.095V83.5476H173.775V88.095H180.581Z" fill="#016599"/>
</svg>
