<svg width="36" height="28" viewBox="0 0 36 28" fill="none" xmlns="http://www.w3.org/2000/svg">
<path d="M4 28C3.0375 28 2.21383 27.6576 1.529 26.9727C0.843 26.2867 0.5 25.4625 0.5 24.5V3.5C0.5 2.5375 0.843 1.71383 1.529 1.029C2.21383 0.343 3.0375 0 4 0H32C32.9625 0 33.7868 0.343 34.4728 1.029C35.1576 1.71383 35.5 2.5375 35.5 3.5V24.5C35.5 25.4625 35.1576 26.2867 34.4728 26.9727C33.7868 27.6576 32.9625 28 32 28H4ZM18 15.4437C18.1458 15.4437 18.2987 15.4216 18.4585 15.3772C18.6195 15.3341 18.7729 15.2687 18.9187 15.1812L31.3 7.4375C31.5333 7.29167 31.7083 7.10967 31.825 6.8915C31.9417 6.67217 32 6.43125 32 6.16875C32 5.58542 31.7521 5.14792 31.2563 4.85625C30.7604 4.56458 30.25 4.57917 29.725 4.9L18 12.25L6.275 4.9C5.75 4.57917 5.23958 4.57158 4.74375 4.87725C4.24792 5.18408 4 5.61458 4 6.16875C4 6.46042 4.05833 6.71533 4.175 6.9335C4.29167 7.15283 4.46667 7.32083 4.7 7.4375L17.0813 15.1812C17.2271 15.2687 17.3805 15.3341 17.5415 15.3772C17.7013 15.4216 17.8542 15.4437 18 15.4437Z" fill="#2593E9"/>
</svg>
