<svg width="54" height="64" viewBox="0 0 54 64" fill="none" xmlns="http://www.w3.org/2000/svg">
<path fill-rule="evenodd" clip-rule="evenodd" d="M40.9765 35.8622H36.8471C35.3382 35.8622 34.5441 35.9441 33.4323 35.2072C31.6853 34.0609 31.2088 31.359 32.4 29.4758C33.3529 28.002 34.7029 27.7564 36.2118 27.7564L46.6147 27.8382V43.4768L26.9206 55.1853L7.22647 43.4768V29.967H5.24117L5.32058 44.7869L27 57.5598L48.6794 44.7869L48.7588 27.7564H50.1088L50.0294 45.5238L27 59.2792L3.89117 45.5238V29.8852H0V47.8164L26.9206 63.7825L53.9206 47.8164V23.4168L38.7529 23.335C34.6235 23.335 30.2559 23.0075 28.1118 28.0839C27.2382 30.0489 27.2382 32.669 27.9529 34.7159C30.4147 41.8393 38.4353 40.2017 45.1059 40.2836V29.5577L38.8323 29.4758C35.4971 29.4758 36.2118 30.2946 36.3706 33.4878H40.9765V35.7804V35.8622Z" fill="#2593E9"/>
<path fill-rule="evenodd" clip-rule="evenodd" d="M0 15.9661V27.6746L26.9206 27.7565V23.3351C24.7765 23.417 8.02059 23.4989 7.22647 23.2532V20.1419L27 8.59714L46.6147 20.2238L46.6941 21.2063L48.6794 21.2882V18.9956C45.0265 17.358 27.8735 5.73143 26.9206 6.30457L5.24118 18.9956V23.4989H3.97059L3.89117 18.0949L27 4.50327L50.1088 18.0949V21.2882H54V16.048L27 0L0 16.2118V15.9661Z" fill="#016599"/>
<path fill-rule="evenodd" clip-rule="evenodd" d="M14.3739 29.8853H8.89448C9.29154 32.8329 12.071 33.406 14.8504 33.406C16.4386 33.406 18.1063 33.406 19.6945 33.406C20.8857 33.406 22.871 33.0785 22.7915 34.4704C22.7915 35.9442 21.0445 35.7805 19.6945 35.7805H8.65625V40.12L14.4533 40.2018C16.5974 40.2018 19.6151 40.4475 21.9974 40.12C25.3327 39.7106 27.0798 38.4824 26.7621 34.6342C26.3651 29.6396 22.5533 29.8853 18.5827 29.8853H14.2945H14.3739Z" fill="#016599"/>
</svg>
