<svg width="53" height="53" viewBox="0 0 53 53" fill="none" xmlns="http://www.w3.org/2000/svg">
<path d="M47.7 51.9L30.9 35.1C29.4 36.3 27.675 37.25 25.725 37.95C23.775 38.65 21.7 39 19.5 39C14.05 39 9.438 37.113 5.664 33.339C1.888 29.563 0 24.95 0 19.5C0 14.05 1.888 9.437 5.664 5.661C9.438 1.887 14.05 0 19.5 0C24.95 0 29.563 1.887 33.339 5.661C37.113 9.437 39 14.05 39 19.5C39 21.7 38.65 23.775 37.95 25.725C37.25 27.675 36.3 29.4 35.1 30.9L51.975 47.775C52.525 48.325 52.8 49 52.8 49.8C52.8 50.6 52.5 51.3 51.9 51.9C51.35 52.45 50.65 52.725 49.8 52.725C48.95 52.725 48.25 52.45 47.7 51.9ZM19.5 33C23.25 33 26.438 31.688 29.064 29.064C31.688 26.438 33 23.25 33 19.5C33 15.75 31.688 12.562 29.064 9.936C26.438 7.312 23.25 6 19.5 6C15.75 6 12.562 7.312 9.936 9.936C7.312 12.562 6 15.75 6 19.5C6 23.25 7.312 26.438 9.936 29.064C12.562 31.688 15.75 33 19.5 33Z" fill="#E39E22"/>
</svg>
