<svg width="78" height="62" viewBox="0 0 78 62" fill="none" xmlns="http://www.w3.org/2000/svg">
<path d="M23.4 31C30.9441 31 37.05 24.9332 37.05 17.4375C37.05 9.9418 30.9441 3.875 23.4 3.875C15.8559 3.875 9.75 9.9418 9.75 17.4375C9.75 24.9332 15.8559 31 23.4 31ZM32.76 34.875H31.7484C29.2134 36.0859 26.3981 36.8125 23.4 36.8125C20.4019 36.8125 17.5988 36.0859 15.0516 34.875H14.04C6.28875 34.875 0 41.1234 0 48.825V52.3125C0 55.5215 2.62031 58.125 5.85 58.125H40.95C44.1797 58.125 46.8 55.5215 46.8 52.3125V48.825C46.8 41.1234 40.5112 34.875 32.76 34.875ZM58.5 31C64.9594 31 70.2 25.793 70.2 19.375C70.2 12.957 64.9594 7.75 58.5 7.75C52.0406 7.75 46.8 12.957 46.8 19.375C46.8 25.793 52.0406 31 58.5 31ZM64.35 34.875H63.8869C62.1928 35.4562 60.4013 35.8438 58.5 35.8438C56.5988 35.8438 54.8072 35.4562 53.1131 34.875H52.65C50.1637 34.875 47.8725 35.5895 45.8616 36.7398C48.8353 39.9246 50.7 44.1508 50.7 48.825V53.475C50.7 53.7414 50.6391 53.9957 50.6269 54.25H72.15C75.3797 54.25 78 51.6465 78 48.4375C78 40.9418 71.8941 34.875 64.35 34.875Z" fill="#E39E22"/>
</svg>
